<svg viewBox="0 0 189.92 30.44" xmlns="http://www.w3.org/2000/svg" xmlns:xlink="http://www.w3.org/1999/xlink"><clipPath id="a"><path clip-rule="evenodd" d="m7 30.44c-4.36 0-7-2.6-7-6.74a14.08 14.08 0 0 1 3.2-8.44 11.27 11.27 0 0 1 8.57-4.39c3.47 0 5.78 1.74 5.78 4.13a2.69 2.69 0 0 1 -2.84 2.69 2.15 2.15 0 0 1 -2.36-2.13c0-.94.58-1.58.58-2.13s-.45-.73-1.24-.73c-1.2 0-2.32.9-3.47 2.64a19 19 0 0 0 -2.76 9c0 2.35 1.2 3.63 3.16 3.63 2.18 0 3.82-1.37 6-4l1.16.86c-2.58 3.71-5.38 5.54-8.75 5.54"/></clipPath><clipPath id="b"><path d="m-205-48.15h600v385h-600z"/></clipPath><clipPath id="c"><path clip-rule="evenodd" d="m53.42 0a2.9 2.9 0 0 1 2.93 2.81 2.93 2.93 0 0 1 -2.93 2.82 3 3 0 0 1 -2.93-2.82 2.93 2.93 0 0 1 2.93-2.81"/></clipPath><clipPath id="d"><path d="m41.63 0h5.86v5.63h-5.86z"/></clipPath><clipPath id="e"><path d="m41-.15h7v6h-7z"/></clipPath><clipPath id="f"><path clip-rule="evenodd" d="m44.56 0a2.91 2.91 0 0 1 2.94 2.81 2.94 2.94 0 0 1 -2.94 2.82 3 3 0 0 1 -2.93-2.82 2.93 2.93 0 0 1 2.93-2.81"/></clipPath><clipPath id="g"><path d="m59.34 0h5.86v5.63h-5.86z"/></clipPath><clipPath id="h"><path d="m59-.15h7v6h-7z"/></clipPath><clipPath id="i"><path clip-rule="evenodd" d="m62.28 0a2.9 2.9 0 0 1 2.93 2.81 2.93 2.93 0 0 1 -2.93 2.82 3 3 0 0 1 -2.94-2.82 2.93 2.93 0 0 1 2.94-2.81"/></clipPath><clipPath id="j"><path clip-rule="evenodd" d="m58 23a13.1 13.1 0 0 1 3-8.08 11 11 0 0 1 8.84-4c4.71 0 7.78 3.07 7.78 7.38 0 6.69-5.51 12.15-11.73 12.15-4.94 0-8-2.9-8-7.46m11.6 2.73a22.77 22.77 0 0 0 3-9.68c0-2.18-.89-3.33-2.53-3.33a4.1 4.1 0 0 0 -3.47 2.29 22.82 22.82 0 0 0 -3.37 10.36c0 2.18.89 3.33 2.53 3.33s2.8-.94 3.91-2.94"/></clipPath><clipPath id="k"><path clip-rule="evenodd" d="m40.31 24.76c-1.07 1.81-1.86 2.74-2.56 2.74a.72.72 0 0 1 -.75-.77 6 6 0 0 1 .26-1.19l1.92-6.54a18.64 18.64 0 0 0 1.06-4.52c0-2.18-1.42-3.54-3.82-3.54-3.15 0-5.55 2-7.64 5.93l-.14-.09a17.32 17.32 0 0 0 .36-2.78 2.77 2.77 0 0 0 -2.84-3.07c-2.3 0-4.64 1.79-6.22 5.26l1.2.35c.87-1.63 1.9-2.7 2.54-2.6.43.07.49.39.48 1.08 0 1.75-1.47 6.66-4 14.84h4.93c3.16-10.66 6.36-16 8.94-16 .71 0 1.06.34 1.06 1a9.49 9.49 0 0 1 -.44 2l-2.4 8.15a9.23 9.23 0 0 0 -.4 2.43c0 2 1.24 3.07 3.37 3.07 2.58 0 4.26-1.66 6-5.06z"/></clipPath><clipPath id="l"><path d="m43.64 10.91h11.44v19.53h-11.44z"/></clipPath><clipPath id="m"><path d="m43 10.85h13v20h-13z"/></clipPath><clipPath id="n"><path clip-rule="evenodd" d="m53.92 24.66c-1.1 1.83-2 2.75-2.78 2.75-.48 0-.75-.3-.75-.89a4.84 4.84 0 0 1 .35-1.62l2.63-7.85a9.11 9.11 0 0 0 .57-3c0-1.91-1.37-3.15-3.68-3.15-2.63 0-4.75 1.69-6.62 5.18l1.32.4c1-1.72 2-2.55 2.63-2.55s.84.25.84.85a5.33 5.33 0 0 1 -.35 1.62l-2.62 7.85a8.92 8.92 0 0 0 -.62 3c0 1.92 1.42 3.2 3.68 3.2 2.61 0 4.73-1.66 6.56-5z"/></clipPath><clipPath id="o"><path clip-rule="evenodd" d="m89 18.91a1.18 1.18 0 0 1 1.2-1.22 1 1 0 0 1 1.12 1 1.13 1.13 0 0 1 -.58.95c.16.32 1.09.58 1.79.58 1.29 0 2.05-.6 2.05-1.53s-.4-1.22-2-2c-1.4-.7-2.07-1.39-2.07-2.37 0-1.53 1.29-2.86 3.64-2.86 1.76 0 3 .91 3 1.91a1.08 1.08 0 0 1 -1.15 1.14 1 1 0 0 1 -1.11-.9 1.14 1.14 0 0 1 .55-1 1.91 1.91 0 0 0 -1.42-.5c-1.14 0-1.81.6-1.81 1.45s.31 1.1 1.81 1.85 2.16 1.44 2.16 2.49c0 1.43-1.16 3-3.79 3-1.88 0-3.44-.83-3.44-2"/></clipPath><clipPath id="p"><path clip-rule="evenodd" d="m102.51 12.4-1.88 5.71a4.3 4.3 0 0 0 -.2 1c0 .56.36.78 1.16.78a8.42 8.42 0 0 0 2-.34l-.06.64a8.53 8.53 0 0 1 -3 .71c-1.45 0-2.12-.57-2.12-1.55a3.37 3.37 0 0 1 .2-1l2-5.93h-2l.29-.81h2l.87-2.75 2.08-.26-1.08 3h2.59l-.26.81z"/></clipPath><clipPath id="q"><path clip-rule="evenodd" d="m114.33 15.15a5.74 5.74 0 0 1 -5.74 5.74 3.47 3.47 0 0 1 -3.66-3.7 5.73 5.73 0 0 1 5.74-5.74 3.48 3.48 0 0 1 3.66 3.7m-2-.64c0-1.59-.6-2.35-1.92-2.35-2.52 0-3.59 3.78-3.59 5.67 0 1.53.6 2.35 1.92 2.35 2.52 0 3.59-3.78 3.59-5.67"/></clipPath><clipPath id="r"><path clip-rule="evenodd" d="m116.6 23.28c-.11.42.34.54 2 .58v.7h-6v-.7c1.34-.06 1.83-.24 1.94-.62l.76-2.17 2.3-7.71c.2-.7 0-.9-1.41-1v-.7l3.84-.11-.38 1.17.09.08a5.29 5.29 0 0 1 3.26-1.35c1.49 0 2.63 1 2.63 2.94 0 2.84-2.81 6.45-6.23 6.45a4.39 4.39 0 0 1 -2-.46zm6.92-8.61c0-1.23-.4-2.11-1.65-2.11a4.21 4.21 0 0 0 -2.52 1.19l-1.47 5.25a1.75 1.75 0 0 0 1.78 1.09c2.28-.01 3.86-2.74 3.86-5.42z"/></clipPath><clipPath id="s"><path clip-rule="evenodd" d="m138.15 13.38a1.23 1.23 0 0 1 -1.29 1.35 1 1 0 0 1 -1.14-1 1.3 1.3 0 0 1 .76-1.07 1.43 1.43 0 0 0 -1.16-.5c-2.25 0-3.73 2.93-3.73 5.21 0 1.52.81 2.59 2.23 2.59a3.85 3.85 0 0 0 3-1.59l.62.5a4.92 4.92 0 0 1 -4 2 3.58 3.58 0 0 1 -3.86-3.66 6 6 0 0 1 5.65-5.78c1.65 0 2.94.79 2.94 1.93"/></clipPath><clipPath id="t"><path clip-rule="evenodd" d="m147.13 18.41a3.16 3.16 0 0 0 -.18.85c0 .62.49.78 1.9.78v.64a6.66 6.66 0 0 1 -1.68.2c-1.2 0-1.83-.24-1.83-1.14a5.2 5.2 0 0 1 .09-.77h-.09a4.07 4.07 0 0 1 -3.43 1.94 2.78 2.78 0 0 1 -3-3.08c0-2.84 2.88-6.36 6-6.36a2.27 2.27 0 0 1 2.26 1.23l.35-1 2-.21-1.29 3.22zm-6.13-.78c0 1.47.56 2.19 1.74 2.19 1 0 1.95-.78 2.7-2.13l1.28-3.76a1.76 1.76 0 0 0 -1.72-1.77c-2.38 0-4 3.68-4 5.47z"/></clipPath><clipPath id="u"><path clip-rule="evenodd" d="m152.77 13.36c.2-.7 0-.9-1.41-1v-.7l3.77-.11-.53 1.45.09.08a7 7 0 0 1 4-1.59c1.34 0 2.05.65 2.05 1.79a4 4 0 0 1 -.24 1.29l-1.39 3.72a3.52 3.52 0 0 0 -.24 1c0 .56.49.72 1.87.72v.64a9 9 0 0 1 -2 .2c-1.16 0-1.81-.34-1.81-1.18a2.63 2.63 0 0 1 .23-1l1.4-3.86a2.72 2.72 0 0 0 .23-1c0-.67-.43-1.09-1.43-1.09a5.34 5.34 0 0 0 -3 1.29l-1.83 6.71h-2.24l1.23-3.23z"/></clipPath><clipPath id="v"><path clip-rule="evenodd" d="m170.76 13.38a1.24 1.24 0 0 1 -1.3 1.35 1 1 0 0 1 -1.14-1 1.3 1.3 0 0 1 .76-1.07 1.41 1.41 0 0 0 -1.16-.5c-2.25 0-3.73 2.93-3.73 5.21 0 1.52.81 2.59 2.24 2.59a3.84 3.84 0 0 0 3-1.59l.62.5a4.9 4.9 0 0 1 -4 2 3.58 3.58 0 0 1 -3.87-3.66 6 6 0 0 1 5.65-5.78c1.65 0 2.95.79 2.95 1.93"/></clipPath><clipPath id="w"><path clip-rule="evenodd" d="m173.67 16.64v.79c0 1.56.63 2.51 2.12 2.51a4 4 0 0 0 3-1.57l.62.52a5.19 5.19 0 0 1 -4.1 2c-1.74 0-3.71-.87-3.71-3.34a6.25 6.25 0 0 1 5.94-6.1c1.87 0 2.92.83 2.92 2 0 1.53-2 3.12-6.78 3.18m.11-.66c4-.2 4.8-1.41 4.8-2.72 0-.68-.36-1.08-1.23-1.08-1.58 0-3.08 1.71-3.57 3.8"/></clipPath><clipPath id="x"><path clip-rule="evenodd" d="m189.92 12.74a1.28 1.28 0 0 1 -1.31 1.41c-.7 0-1.14-.32-1.14-1a1.33 1.33 0 0 1 .18-.6 4.93 4.93 0 0 0 -2.9 2l-1.7 6.15h-2.23l1.18-3.19 1.3-4.15c.2-.7 0-.9-1.41-1v-.7l3.78-.11-.52 1.65.09.08a4.77 4.77 0 0 1 3.24-1.79 1.27 1.27 0 0 1 1.4 1.23"/></clipPath><g clip-path="url(#a)"><g clip-path="url(#b)"><path d="m-5 5.87h27.55v29.57h-27.55z" fill="#716d69"/></g></g><g clip-path="url(#c)"><g clip-path="url(#b)"><path d="m45.49-5h15.86v15.63h-15.86z" fill="#716d69"/></g></g><g clip-path="url(#d)"><g clip-path="url(#b)"><g clip-path="url(#e)"><g clip-path="url(#f)"><g clip-path="url(#e)"><path d="m36.63-5h15.86v15.63h-15.86z" fill="#716d69"/></g></g></g></g></g><g clip-path="url(#g)"><g clip-path="url(#b)"><g clip-path="url(#h)"><g clip-path="url(#i)"><g clip-path="url(#h)"><path d="m54.34-5h15.86v15.63h-15.86z" fill="#716d69"/></g></g></g></g></g><g clip-path="url(#j)"><g clip-path="url(#b)"><path d="m52.96 5.91h29.68v29.53h-29.68z" fill="#716d69"/></g></g><g clip-path="url(#k)"><g clip-path="url(#b)"><path d="m14.94 5.91h31.31v29.53h-31.31z" fill="#716d69"/></g></g><g clip-path="url(#l)"><g clip-path="url(#b)"><g clip-path="url(#m)"><g clip-path="url(#n)"><g clip-path="url(#m)"><path d="m38.64 5.91h21.44v29.53h-21.44z" fill="#716d69"/></g></g></g></g></g><g clip-path="url(#o)"><g clip-path="url(#b)"><path d="m83.96 6.45h18.19v19.45h-18.19z" fill="#716d69"/></g></g><g clip-path="url(#p)"><g clip-path="url(#b)"><path d="m93.44 3.58h16.92v22.31h-16.92z" fill="#716d69"/></g></g><g clip-path="url(#q)"><g clip-path="url(#b)"><path d="m99.93 6.45h19.4v19.45h-19.4z" fill="#716d69"/></g></g><g clip-path="url(#r)"><g clip-path="url(#b)"><path d="m107.59 6.45h23.03v23.11h-23.03z" fill="#716d69"/></g></g><g clip-path="url(#s)"><g clip-path="url(#b)"><path d="m124.56 6.45h18.59v19.45h-18.59z" fill="#716d69"/></g></g><g clip-path="url(#t)"><g clip-path="url(#b)"><path d="m133.94 6.45h20.65v19.45h-20.65z" fill="#716d69"/></g></g><g clip-path="url(#u)"><g clip-path="url(#b)"><path d="m145.24 6.51h20.47v19.37h-20.47z" fill="#716d69"/></g></g><g clip-path="url(#v)"><g clip-path="url(#b)"><path d="m157.16 6.45h18.59v19.45h-18.59z" fill="#716d69"/></g></g><g clip-path="url(#w)"><g clip-path="url(#b)"><path d="m166.59 6.45h18.86v19.45h-18.86z" fill="#716d69"/></g></g><g clip-path="url(#x)"><g clip-path="url(#b)"><path d="m175.82 6.51h19.11v19.23h-19.11z" fill="#716d69"/></g></g></svg>